<svg width="431" height="82" viewBox="0 0 431 82" fill="none" xmlns="http://www.w3.org/2000/svg">
<path d="M134.189 64.567C129.765 64.567 126.311 63.1901 123.828 60.4364C121.391 57.6375 120.059 53.7101 119.833 48.6541L119.765 46.2841L119.833 43.8464C120.014 38.971 121.345 35.1113 123.828 32.2673C126.356 29.4233 129.81 28.0013 134.189 28.0013C138.297 28.0013 141.615 29.333 144.143 31.9964V17.5055C144.143 17.009 144.301 16.6027 144.617 16.2867C144.933 15.9707 145.339 15.8127 145.835 15.8127H154.097C154.593 15.8127 154.999 15.9707 155.315 16.2867C155.631 16.6027 155.789 17.009 155.789 17.5055V62.197C155.789 62.6484 155.631 63.0547 155.315 63.4158C154.999 63.7318 154.593 63.8898 154.097 63.8898H146.445C145.993 63.8898 145.587 63.7318 145.226 63.4158C144.91 63.0547 144.752 62.6484 144.752 62.197V60.0301C142.269 63.0547 138.748 64.567 134.189 64.567ZM137.913 55.4933C139.944 55.4933 141.457 54.8613 142.45 53.5973C143.443 52.2881 144.007 50.6178 144.143 48.5864C144.188 47.9995 144.21 47.1418 144.21 46.0133C144.21 44.9298 144.188 44.0947 144.143 43.5078C144.052 41.657 143.488 40.1221 142.45 38.9033C141.411 37.6844 139.899 37.075 137.913 37.075C135.791 37.075 134.256 37.707 133.308 38.971C132.405 40.235 131.886 41.973 131.751 44.185C131.706 44.6364 131.683 45.3361 131.683 46.2841C131.683 47.2321 131.706 47.9318 131.751 48.3833C131.886 50.5953 132.405 52.3333 133.308 53.5973C134.256 54.8613 135.791 55.4933 137.913 55.4933ZM165.463 63.8898C165.012 63.8898 164.605 63.7318 164.244 63.4158C163.928 63.0547 163.77 62.6484 163.77 62.197V17.5055C163.77 17.009 163.928 16.6027 164.244 16.2867C164.605 15.9707 165.012 15.8127 165.463 15.8127H174.13C174.627 15.8127 175.033 15.9707 175.349 16.2867C175.665 16.6027 175.823 17.009 175.823 17.5055V32.6058C178.532 29.5361 182.098 28.0013 186.522 28.0013C189.14 28.0013 191.465 28.5881 193.497 29.7618C195.573 30.9355 197.198 32.6735 198.372 34.9758C199.546 37.2781 200.133 40.0544 200.133 43.3047V62.197C200.133 62.6484 199.975 63.0547 199.659 63.4158C199.343 63.7318 198.936 63.8898 198.44 63.8898H189.705C189.253 63.8898 188.847 63.7318 188.486 63.4158C188.17 63.0547 188.012 62.6484 188.012 62.197V43.711C188.012 41.5893 187.493 39.9641 186.454 38.8355C185.461 37.6618 183.994 37.075 182.053 37.075C180.112 37.075 178.577 37.6618 177.448 38.8355C176.365 39.9641 175.823 41.5893 175.823 43.711V62.197C175.823 62.6935 175.665 63.0998 175.349 63.4158C175.033 63.7318 174.627 63.8898 174.13 63.8898H165.463ZM224.469 64.567C218.871 64.567 214.56 63.2353 211.535 60.5718C208.511 57.9084 206.863 54.1615 206.592 49.3313C206.547 48.7444 206.524 47.7287 206.524 46.2841C206.524 44.8395 206.547 43.8238 206.592 43.237C206.863 38.4518 208.556 34.7275 211.671 32.0641C214.785 29.3555 219.051 28.0013 224.469 28.0013C229.931 28.0013 234.219 29.3555 237.334 32.0641C240.449 34.7275 242.142 38.4518 242.413 43.237C242.458 43.8238 242.481 44.8395 242.481 46.2841C242.481 47.7287 242.458 48.7444 242.413 49.3313C242.142 54.1615 240.494 57.9084 237.47 60.5718C234.445 63.2353 230.111 64.567 224.469 64.567ZM224.469 56.3058C226.455 56.3058 227.922 55.719 228.87 54.5453C229.818 53.3264 230.36 51.4755 230.495 48.9927C230.54 48.5413 230.563 47.6384 230.563 46.2841C230.563 44.9298 230.54 44.027 230.495 43.5755C230.36 41.1378 229.795 39.3095 228.802 38.0907C227.854 36.8718 226.41 36.2624 224.469 36.2624C220.722 36.2624 218.735 38.7001 218.51 43.5755L218.442 46.2841L218.51 48.9927C218.6 51.4755 219.119 53.3264 220.067 54.5453C221.06 55.719 222.527 56.3058 224.469 56.3058ZM259.77 64.567C257.377 64.567 255.188 64.1155 253.202 63.2127C251.261 62.2647 249.726 61.0007 248.597 59.4207C247.514 57.7955 246.972 56.0124 246.972 54.0713C246.972 50.9564 248.236 48.451 250.764 46.555C253.337 44.659 256.858 43.3498 261.327 42.6275L269.792 41.341V40.393C269.792 38.6775 269.431 37.4135 268.708 36.601C267.986 35.7884 266.767 35.3821 265.052 35.3821C264.013 35.3821 263.156 35.5627 262.479 35.9238C261.801 36.285 261.102 36.7815 260.379 37.4135C259.747 37.9553 259.273 38.3164 258.957 38.497C258.822 38.8581 258.574 39.0387 258.213 39.0387H250.832C250.38 39.0387 249.997 38.9033 249.681 38.6324C249.41 38.3164 249.297 37.9553 249.342 37.549C249.387 36.3301 249.974 34.9758 251.103 33.4861C252.276 31.9964 254.037 30.7098 256.384 29.6264C258.777 28.543 261.711 28.0013 265.187 28.0013C270.74 28.0013 274.848 29.2427 277.511 31.7255C280.175 34.1633 281.506 37.4587 281.506 41.6118V62.197C281.506 62.6484 281.348 63.0547 281.032 63.4158C280.716 63.7318 280.31 63.8898 279.813 63.8898H271.959C271.507 63.8898 271.101 63.7318 270.74 63.4158C270.424 63.0547 270.266 62.6484 270.266 62.197V59.827C269.273 61.2264 267.873 62.3775 266.067 63.2804C264.307 64.1381 262.208 64.567 259.77 64.567ZM262.953 56.8475C265.029 56.8475 266.699 56.1704 267.963 54.8161C269.273 53.4618 269.927 51.4755 269.927 48.8573V47.9093L264.171 48.925C260.109 49.6473 258.077 51.0693 258.077 53.191C258.077 54.3195 258.551 55.2224 259.499 55.8995C260.447 56.5315 261.598 56.8475 262.953 56.8475ZM290.84 63.8898C290.344 63.8898 289.937 63.7318 289.621 63.4158C289.305 63.0998 289.147 62.6935 289.147 62.197V30.3713C289.147 29.8747 289.305 29.4684 289.621 29.1524C289.937 28.8364 290.344 28.6784 290.84 28.6784H298.627C299.124 28.6784 299.53 28.859 299.846 29.2201C300.207 29.5361 300.388 29.9198 300.388 30.3713V33.0798C302.871 30.1455 306.211 28.6784 310.41 28.6784H313.389C313.886 28.6784 314.292 28.8364 314.608 29.1524C314.924 29.4684 315.082 29.8747 315.082 30.3713V37.3458C315.082 37.7973 314.924 38.2035 314.608 38.5647C314.292 38.8807 313.886 39.0387 313.389 39.0387H306.821C304.97 39.0387 303.525 39.5578 302.487 40.5961C301.494 41.5893 300.997 43.0113 300.997 44.8621V62.197C300.997 62.6935 300.817 63.0998 300.456 63.4158C300.14 63.7318 299.733 63.8898 299.237 63.8898H290.84ZM332.703 64.567C328.279 64.567 324.825 63.1901 322.342 60.4364C319.905 57.6375 318.573 53.7101 318.347 48.6541L318.279 46.2841L318.347 43.8464C318.528 38.971 319.859 35.1113 322.342 32.2673C324.87 29.4233 328.324 28.0013 332.703 28.0013C336.811 28.0013 340.129 29.333 342.657 31.9964V17.5055C342.657 17.009 342.815 16.6027 343.131 16.2867C343.447 15.9707 343.853 15.8127 344.349 15.8127H352.611C353.107 15.8127 353.513 15.9707 353.829 16.2867C354.145 16.6027 354.303 17.009 354.303 17.5055V62.197C354.303 62.6484 354.145 63.0547 353.829 63.4158C353.513 63.7318 353.107 63.8898 352.611 63.8898H344.959C344.507 63.8898 344.101 63.7318 343.74 63.4158C343.424 63.0547 343.266 62.6484 343.266 62.197V60.0301C340.783 63.0547 337.262 64.567 332.703 64.567ZM336.427 55.4933C338.458 55.4933 339.971 54.8613 340.964 53.5973C341.957 52.2881 342.521 50.6178 342.657 48.5864C342.702 47.9995 342.724 47.1418 342.724 46.0133C342.724 44.9298 342.702 44.0947 342.657 43.5078C342.566 41.657 342.002 40.1221 340.964 38.9033C339.925 37.6844 338.413 37.075 336.427 37.075C334.305 37.075 332.77 37.707 331.822 38.971C330.919 40.235 330.4 41.973 330.265 44.185C330.22 44.6364 330.197 45.3361 330.197 46.2841C330.197 47.2321 330.22 47.9318 330.265 48.3833C330.4 50.5953 330.919 52.3333 331.822 53.5973C332.77 54.8613 334.305 55.4933 336.427 55.4933ZM378.536 64.567C373.118 64.567 368.852 63.0998 365.738 60.1655C362.623 57.2313 360.998 52.9653 360.862 47.3675V44.9975C361.043 39.6707 362.69 35.5175 365.805 32.5381C368.965 29.5135 373.186 28.0013 378.468 28.0013C382.305 28.0013 385.533 28.7913 388.151 30.3713C390.814 31.9061 392.801 34.0278 394.11 36.7364C395.464 39.445 396.141 42.5598 396.141 46.081V47.7061C396.141 48.1575 395.983 48.5638 395.667 48.925C395.351 49.241 394.945 49.399 394.448 49.399H372.78V49.873C372.87 51.9947 373.389 53.7101 374.337 55.0193C375.285 56.3284 376.662 56.983 378.468 56.983C379.596 56.983 380.522 56.7573 381.244 56.3058C381.966 55.8093 382.621 55.2224 383.208 54.5453C383.614 54.0487 383.93 53.7553 384.156 53.665C384.427 53.5295 384.833 53.4618 385.375 53.4618H393.771C394.178 53.4618 394.516 53.5973 394.787 53.8681C395.103 54.0938 395.261 54.4098 395.261 54.8161C395.261 55.9898 394.584 57.3441 393.23 58.879C391.92 60.4138 390.002 61.7455 387.474 62.8741C384.946 64.0027 381.966 64.567 378.536 64.567ZM384.224 42.6953V42.5598C384.224 40.3478 383.704 38.6098 382.666 37.3458C381.673 36.0367 380.274 35.3821 378.468 35.3821C376.707 35.3821 375.308 36.0367 374.27 37.3458C373.276 38.6098 372.78 40.3478 372.78 42.5598V42.6953H384.224ZM404.182 63.8898C403.686 63.8898 403.279 63.7318 402.963 63.4158C402.647 63.0998 402.489 62.6935 402.489 62.197V30.3713C402.489 29.8747 402.647 29.4684 402.963 29.1524C403.279 28.8364 403.686 28.6784 404.182 28.6784H411.969C412.466 28.6784 412.872 28.859 413.188 29.2201C413.549 29.5361 413.73 29.9198 413.73 30.3713V33.0798C416.213 30.1455 419.553 28.6784 423.752 28.6784H426.731C427.228 28.6784 427.634 28.8364 427.95 29.1524C428.266 29.4684 428.424 29.8747 428.424 30.3713V37.3458C428.424 37.7973 428.266 38.2035 427.95 38.5647C427.634 38.8807 427.228 39.0387 426.731 39.0387H420.163C418.312 39.0387 416.867 39.5578 415.829 40.5961C414.836 41.5893 414.339 43.0113 414.339 44.8621V62.197C414.339 62.6935 414.159 63.0998 413.798 63.4158C413.482 63.7318 413.075 63.8898 412.579 63.8898H404.182Z" fill="#F8F8F8"/>
<path d="M6.39399 63.9651C5.89742 63.9651 5.49114 63.8071 5.17514 63.4911C4.85914 63.1751 4.70114 62.7688 4.70114 62.2723V30.4465C4.70114 29.95 4.85914 29.5437 5.17514 29.2277C5.49114 28.9117 5.89742 28.7537 6.39399 28.7537H13.7749C14.2714 28.7537 14.6777 28.9117 14.9937 29.2277C15.3097 29.5437 15.4677 29.95 15.4677 30.4465V32.7488C16.506 31.3945 17.8829 30.2885 19.5983 29.4308C21.3589 28.528 23.3226 28.0765 25.4894 28.0765C30.4551 28.0765 33.886 30.0177 35.782 33.9C36.8654 32.1845 38.3777 30.7851 40.3189 29.7017C42.26 28.6183 44.3366 28.0765 46.5486 28.0765C50.2503 28.0765 53.2523 29.3405 55.5546 31.8685C57.902 34.3514 59.0757 38.0757 59.0757 43.0414V62.2723C59.0757 62.7237 58.9177 63.13 58.6017 63.4911C58.2857 63.8071 57.8794 63.9651 57.3829 63.9651H49.528C49.0314 63.9651 48.6026 63.8071 48.2414 63.4911C47.9254 63.1751 47.7674 62.7688 47.7674 62.2723V43.5154C47.7674 41.2583 47.2934 39.6331 46.3454 38.64C45.4426 37.6468 44.2011 37.1503 42.6211 37.1503C41.1766 37.1503 39.9803 37.6694 39.0323 38.7077C38.0843 39.7008 37.6103 41.3034 37.6103 43.5154V62.2723C37.6103 62.7237 37.4523 63.13 37.1363 63.4911C36.8203 63.8071 36.414 63.9651 35.9174 63.9651H28.0626C27.566 63.9651 27.1597 63.8071 26.8437 63.4911C26.5277 63.1751 26.3697 62.7688 26.3697 62.2723V43.5154C26.3697 41.3034 25.8731 39.7008 24.88 38.7077C23.932 37.6694 22.7131 37.1503 21.2234 37.1503C19.7789 37.1503 18.56 37.6694 17.5669 38.7077C16.6189 39.7008 16.1449 41.2808 16.1449 43.4477V62.2723C16.1449 62.7237 15.9869 63.13 15.6709 63.4911C15.3549 63.8071 14.9486 63.9651 14.452 63.9651H6.39399Z" fill="#F8F8F8"/>
<path d="M114.163 51.815L103.329 41.6046C102.537 40.8653 101.577 40.3047 100.52 39.9653C99.4625 39.6259 98.3369 39.5165 97.228 39.6455C96.1192 39.7744 95.0562 40.1384 94.1197 40.7097C93.1833 41.2811 92.3979 42.0448 91.8231 42.9429L77.5401 64.3802H72.4569C70.505 64.3802 68.633 63.6534 67.2528 62.3596C65.8725 61.0658 65.0971 59.311 65.0971 57.4813V34.4849C65.0971 32.6552 65.8725 30.9004 67.2528 29.6066C68.633 28.3128 70.505 27.5859 72.4569 27.5859H106.803C108.755 27.5859 110.627 28.3128 112.007 29.6066C113.387 30.9004 114.163 32.6552 114.163 34.4849V51.815ZM114.136 58.0792C113.976 59.799 113.134 61.4002 111.777 62.5668C110.419 63.7333 108.644 64.3804 106.803 64.3802H83.8401L96.0304 45.3093C96.2218 45.0099 96.4834 44.7552 96.7954 44.5646C97.1074 44.3741 97.4616 44.2526 97.8311 44.2093C98.2006 44.1661 98.5758 44.2023 98.9282 44.3152C99.2805 44.4281 99.6009 44.6147 99.8649 44.8608L114.136 58.0792V58.0792ZM79.8168 48.2827C81.7687 48.2827 83.6407 47.5559 85.0209 46.2621C86.4012 44.9683 87.1766 43.2135 87.1766 41.3838C87.1766 39.5541 86.4012 37.7993 85.0209 36.5055C83.6407 35.2117 81.7687 34.4849 79.8168 34.4849C77.8648 34.4849 75.9928 35.2117 74.6126 36.5055C73.2324 37.7993 72.4569 39.5541 72.4569 41.3838C72.4569 43.2135 73.2324 44.9683 74.6126 46.2621C75.9928 47.5559 77.8648 48.2827 79.8168 48.2827V48.2827Z" fill="#F8F8F8"/>
</svg>
