<svg width="431" height="82" viewBox="0 0 431 82" fill="none" xmlns="http://www.w3.org/2000/svg">
<path d="M134.24 64.6019C129.816 64.6019 126.362 63.225 123.879 60.4713C121.442 57.6724 120.11 53.745 119.884 48.689L119.816 46.319L119.884 43.8813C120.065 39.0059 121.396 35.1461 123.879 32.3021C126.407 29.4581 129.861 28.0361 134.24 28.0361C138.348 28.0361 141.666 29.3679 144.194 32.0313V17.5404C144.194 17.0439 144.352 16.6376 144.668 16.3216C144.984 16.0056 145.39 15.8476 145.886 15.8476H154.148C154.644 15.8476 155.05 16.0056 155.366 16.3216C155.682 16.6376 155.84 17.0439 155.84 17.5404V62.2319C155.84 62.6833 155.682 63.0896 155.366 63.4507C155.05 63.7667 154.644 63.9247 154.148 63.9247H146.496C146.044 63.9247 145.638 63.7667 145.277 63.4507C144.961 63.0896 144.803 62.6833 144.803 62.2319V60.065C142.32 63.0896 138.799 64.6019 134.24 64.6019ZM137.964 55.5281C139.995 55.5281 141.508 54.8961 142.501 53.6321C143.494 52.323 144.058 50.6527 144.194 48.6213C144.239 48.0344 144.261 47.1767 144.261 46.0481C144.261 44.9647 144.239 44.1296 144.194 43.5427C144.103 41.6919 143.539 40.157 142.501 38.9381C141.462 37.7193 139.95 37.1099 137.964 37.1099C135.842 37.1099 134.307 37.7419 133.359 39.0059C132.456 40.2699 131.937 42.0079 131.802 44.2199C131.757 44.6713 131.734 45.371 131.734 46.319C131.734 47.267 131.757 47.9667 131.802 48.4181C131.937 50.6301 132.456 52.3681 133.359 53.6321C134.307 54.8961 135.842 55.5281 137.964 55.5281ZM165.514 63.9247C165.063 63.9247 164.656 63.7667 164.295 63.4507C163.979 63.0896 163.821 62.6833 163.821 62.2319V17.5404C163.821 17.0439 163.979 16.6376 164.295 16.3216C164.656 16.0056 165.063 15.8476 165.514 15.8476H174.181C174.678 15.8476 175.084 16.0056 175.4 16.3216C175.716 16.6376 175.874 17.0439 175.874 17.5404V32.6407C178.583 29.571 182.149 28.0361 186.573 28.0361C189.191 28.0361 191.516 28.623 193.548 29.7967C195.624 30.9704 197.249 32.7084 198.423 35.0107C199.597 37.313 200.184 40.0893 200.184 43.3396V62.2319C200.184 62.6833 200.026 63.0896 199.71 63.4507C199.394 63.7667 198.987 63.9247 198.491 63.9247H189.756C189.304 63.9247 188.898 63.7667 188.537 63.4507C188.221 63.0896 188.063 62.6833 188.063 62.2319V43.7459C188.063 41.6241 187.544 39.999 186.505 38.8704C185.512 37.6967 184.045 37.1099 182.104 37.1099C180.163 37.1099 178.628 37.6967 177.499 38.8704C176.416 39.999 175.874 41.6241 175.874 43.7459V62.2319C175.874 62.7284 175.716 63.1347 175.4 63.4507C175.084 63.7667 174.678 63.9247 174.181 63.9247H165.514ZM224.52 64.6019C218.922 64.6019 214.611 63.2701 211.586 60.6067C208.562 57.9433 206.914 54.1964 206.643 49.3661C206.598 48.7793 206.575 47.7636 206.575 46.319C206.575 44.8744 206.598 43.8587 206.643 43.2719C206.914 38.4867 208.607 34.7624 211.722 32.099C214.836 29.3904 219.102 28.0361 224.52 28.0361C229.982 28.0361 234.27 29.3904 237.385 32.099C240.5 34.7624 242.193 38.4867 242.464 43.2719C242.509 43.8587 242.532 44.8744 242.532 46.319C242.532 47.7636 242.509 48.7793 242.464 49.3661C242.193 54.1964 240.545 57.9433 237.521 60.6067C234.496 63.2701 230.162 64.6019 224.52 64.6019ZM224.52 56.3407C226.506 56.3407 227.973 55.7539 228.921 54.5801C229.869 53.3613 230.411 51.5104 230.546 49.0276C230.591 48.5761 230.614 47.6733 230.614 46.319C230.614 44.9647 230.591 44.0619 230.546 43.6104C230.411 41.1727 229.846 39.3444 228.853 38.1256C227.905 36.9067 226.461 36.2973 224.52 36.2973C220.773 36.2973 218.786 38.735 218.561 43.6104L218.493 46.319L218.561 49.0276C218.651 51.5104 219.17 53.3613 220.118 54.5801C221.111 55.7539 222.578 56.3407 224.52 56.3407ZM259.821 64.6019C257.428 64.6019 255.239 64.1504 253.253 63.2476C251.312 62.2996 249.777 61.0356 248.648 59.4556C247.565 57.8304 247.023 56.0473 247.023 54.1061C247.023 50.9913 248.287 48.4859 250.815 46.5899C253.388 44.6939 256.909 43.3847 261.378 42.6624L269.843 41.3759V40.4279C269.843 38.7124 269.482 37.4484 268.759 36.6359C268.037 35.8233 266.818 35.417 265.103 35.417C264.064 35.417 263.207 35.5976 262.53 35.9587C261.852 36.3199 261.153 36.8164 260.43 37.4484C259.798 37.9901 259.324 38.3513 259.008 38.5319C258.873 38.893 258.625 39.0736 258.264 39.0736H250.883C250.431 39.0736 250.048 38.9381 249.732 38.6673C249.461 38.3513 249.348 37.9901 249.393 37.5839C249.438 36.365 250.025 35.0107 251.154 33.521C252.327 32.0313 254.088 30.7447 256.435 29.6613C258.828 28.5779 261.762 28.0361 265.238 28.0361C270.791 28.0361 274.899 29.2776 277.562 31.7604C280.226 34.1981 281.557 37.4936 281.557 41.6467V62.2319C281.557 62.6833 281.399 63.0896 281.083 63.4507C280.767 63.7667 280.361 63.9247 279.864 63.9247H272.01C271.558 63.9247 271.152 63.7667 270.791 63.4507C270.475 63.0896 270.317 62.6833 270.317 62.2319V59.8619C269.324 61.2613 267.924 62.4124 266.118 63.3153C264.358 64.173 262.259 64.6019 259.821 64.6019ZM263.004 56.8824C265.08 56.8824 266.75 56.2053 268.014 54.851C269.324 53.4967 269.978 51.5104 269.978 48.8921V47.9441L264.222 48.9599C260.16 49.6821 258.128 51.1041 258.128 53.2259C258.128 54.3544 258.602 55.2573 259.55 55.9344C260.498 56.5664 261.649 56.8824 263.004 56.8824ZM290.891 63.9247C290.395 63.9247 289.988 63.7667 289.672 63.4507C289.356 63.1347 289.198 62.7284 289.198 62.2319V30.4061C289.198 29.9096 289.356 29.5033 289.672 29.1873C289.988 28.8713 290.395 28.7133 290.891 28.7133H298.678C299.175 28.7133 299.581 28.8939 299.897 29.255C300.258 29.571 300.439 29.9547 300.439 30.4061V33.1147C302.922 30.1804 306.262 28.7133 310.461 28.7133H313.44C313.937 28.7133 314.343 28.8713 314.659 29.1873C314.975 29.5033 315.133 29.9096 315.133 30.4061V37.3807C315.133 37.8321 314.975 38.2384 314.659 38.5996C314.343 38.9156 313.937 39.0736 313.44 39.0736H306.872C305.021 39.0736 303.576 39.5927 302.538 40.631C301.545 41.6241 301.048 43.0461 301.048 44.897V62.2319C301.048 62.7284 300.868 63.1347 300.507 63.4507C300.191 63.7667 299.784 63.9247 299.288 63.9247H290.891ZM332.754 64.6019C328.33 64.6019 324.876 63.225 322.393 60.4713C319.956 57.6724 318.624 53.745 318.398 48.689L318.33 46.319L318.398 43.8813C318.579 39.0059 319.91 35.1461 322.393 32.3021C324.921 29.4581 328.375 28.0361 332.754 28.0361C336.862 28.0361 340.18 29.3679 342.708 32.0313V17.5404C342.708 17.0439 342.866 16.6376 343.182 16.3216C343.498 16.0056 343.904 15.8476 344.4 15.8476H352.662C353.158 15.8476 353.564 16.0056 353.88 16.3216C354.196 16.6376 354.354 17.0439 354.354 17.5404V62.2319C354.354 62.6833 354.196 63.0896 353.88 63.4507C353.564 63.7667 353.158 63.9247 352.662 63.9247H345.01C344.558 63.9247 344.152 63.7667 343.791 63.4507C343.475 63.0896 343.317 62.6833 343.317 62.2319V60.065C340.834 63.0896 337.313 64.6019 332.754 64.6019ZM336.478 55.5281C338.509 55.5281 340.022 54.8961 341.015 53.6321C342.008 52.323 342.572 50.6527 342.708 48.6213C342.753 48.0344 342.775 47.1767 342.775 46.0481C342.775 44.9647 342.753 44.1296 342.708 43.5427C342.617 41.6919 342.053 40.157 341.015 38.9381C339.976 37.7193 338.464 37.1099 336.478 37.1099C334.356 37.1099 332.821 37.7419 331.873 39.0059C330.97 40.2699 330.451 42.0079 330.316 44.2199C330.271 44.6713 330.248 45.371 330.248 46.319C330.248 47.267 330.271 47.9667 330.316 48.4181C330.451 50.6301 330.97 52.3681 331.873 53.6321C332.821 54.8961 334.356 55.5281 336.478 55.5281ZM378.587 64.6019C373.169 64.6019 368.903 63.1347 365.789 60.2004C362.674 57.2661 361.049 53.0001 360.913 47.4024V45.0324C361.094 39.7056 362.741 35.5524 365.856 32.573C369.016 29.5484 373.237 28.0361 378.519 28.0361C382.356 28.0361 385.584 28.8261 388.202 30.4061C390.865 31.941 392.852 34.0627 394.161 36.7713C395.515 39.4799 396.192 42.5947 396.192 46.1159V47.741C396.192 48.1924 396.034 48.5987 395.718 48.9599C395.402 49.2759 394.996 49.4339 394.499 49.4339H372.831V49.9079C372.921 52.0296 373.44 53.745 374.388 55.0541C375.336 56.3633 376.713 57.0179 378.519 57.0179C379.647 57.0179 380.573 56.7921 381.295 56.3407C382.017 55.8441 382.672 55.2573 383.259 54.5801C383.665 54.0836 383.981 53.7901 384.207 53.6999C384.478 53.5644 384.884 53.4967 385.426 53.4967H393.822C394.229 53.4967 394.567 53.6321 394.838 53.903C395.154 54.1287 395.312 54.4447 395.312 54.851C395.312 56.0247 394.635 57.379 393.281 58.9139C391.971 60.4487 390.053 61.7804 387.525 62.909C384.997 64.0376 382.017 64.6019 378.587 64.6019ZM384.275 42.7301V42.5947C384.275 40.3827 383.755 38.6447 382.717 37.3807C381.724 36.0716 380.325 35.417 378.519 35.417C376.758 35.417 375.359 36.0716 374.321 37.3807C373.327 38.6447 372.831 40.3827 372.831 42.5947V42.7301H384.275ZM404.233 63.9247C403.737 63.9247 403.33 63.7667 403.014 63.4507C402.698 63.1347 402.54 62.7284 402.54 62.2319V30.4061C402.54 29.9096 402.698 29.5033 403.014 29.1873C403.33 28.8713 403.737 28.7133 404.233 28.7133H412.02C412.517 28.7133 412.923 28.8939 413.239 29.255C413.6 29.571 413.781 29.9547 413.781 30.4061V33.1147C416.264 30.1804 419.604 28.7133 423.803 28.7133H426.782C427.279 28.7133 427.685 28.8713 428.001 29.1873C428.317 29.5033 428.475 29.9096 428.475 30.4061V37.3807C428.475 37.8321 428.317 38.2384 428.001 38.5996C427.685 38.9156 427.279 39.0736 426.782 39.0736H420.214C418.363 39.0736 416.918 39.5927 415.88 40.631C414.887 41.6241 414.39 43.0461 414.39 44.897V62.2319C414.39 62.7284 414.21 63.1347 413.849 63.4507C413.533 63.7667 413.126 63.9247 412.63 63.9247H404.233Z" fill="black"/>
<path d="M6.44502 64C5.94845 64 5.54216 63.842 5.22616 63.526C4.91016 63.21 4.75216 62.8037 4.75216 62.3071V30.4814C4.75216 29.9849 4.91016 29.5786 5.22616 29.2626C5.54216 28.9466 5.94845 28.7886 6.44502 28.7886H13.8259C14.3224 28.7886 14.7287 28.9466 15.0447 29.2626C15.3607 29.5786 15.5187 29.9849 15.5187 30.4814V32.7837C16.557 31.4294 17.9339 30.3234 19.6493 29.4657C21.4099 28.5629 23.3736 28.1114 25.5404 28.1114C30.5062 28.1114 33.937 30.0526 35.833 33.9349C36.9165 32.2194 38.4287 30.82 40.3699 29.7366C42.311 28.6531 44.3876 28.1114 46.5996 28.1114C50.3013 28.1114 53.3033 29.3754 55.6056 31.9034C57.953 34.3863 59.1267 38.1106 59.1267 43.0763V62.3071C59.1267 62.7586 58.9687 63.1649 58.6527 63.526C58.3367 63.842 57.9305 64 57.4339 64H49.579C49.0825 64 48.6536 63.842 48.2924 63.526C47.9765 63.21 47.8185 62.8037 47.8185 62.3071V43.5503C47.8185 41.2931 47.3445 39.668 46.3965 38.6749C45.4936 37.6817 44.2522 37.1851 42.6722 37.1851C41.2276 37.1851 40.0313 37.7043 39.0833 38.7426C38.1353 39.7357 37.6613 41.3383 37.6613 43.5503V62.3071C37.6613 62.7586 37.5033 63.1649 37.1873 63.526C36.8713 63.842 36.465 64 35.9685 64H28.1136C27.617 64 27.2107 63.842 26.8947 63.526C26.5787 63.21 26.4207 62.8037 26.4207 62.3071V43.5503C26.4207 41.3383 25.9242 39.7357 24.931 38.7426C23.983 37.7043 22.7642 37.1851 21.2744 37.1851C19.8299 37.1851 18.611 37.7043 17.6179 38.7426C16.6699 39.7357 16.1959 41.3157 16.1959 43.4826V62.3071C16.1959 62.7586 16.0379 63.1649 15.7219 63.526C15.4059 63.842 14.9996 64 14.503 64H6.44502Z" fill="black"/>
<path d="M114.214 51.8498L103.38 41.6394C102.588 40.9002 101.628 40.3396 100.571 40.0002C99.5135 39.6607 98.3879 39.5513 97.2791 39.6803C96.1702 39.8093 95.1073 40.1733 94.1708 40.7446C93.2343 41.3159 92.4489 42.0796 91.8741 42.9778L77.5912 64.4151H72.508C70.556 64.4151 68.684 63.6882 67.3038 62.3944C65.9236 61.1006 65.1482 59.3459 65.1482 57.5161V34.5197C65.1482 32.69 65.9236 30.9353 67.3038 29.6415C68.684 28.3477 70.556 27.6208 72.508 27.6208H106.854C108.806 27.6208 110.678 28.3477 112.058 29.6415C113.438 30.9353 114.214 32.69 114.214 34.5197V51.8498ZM114.187 58.1141C114.027 59.8339 113.185 61.4351 111.828 62.6016C110.47 63.7682 108.695 64.4152 106.854 64.4151H83.8911L96.0815 45.3441C96.2729 45.0447 96.5345 44.7901 96.8465 44.5995C97.1584 44.4089 97.5126 44.2874 97.8821 44.2442C98.2516 44.201 98.6268 44.2372 98.9792 44.3501C99.3316 44.463 99.6519 44.6496 99.9159 44.8957L114.187 58.1141V58.1141ZM79.8678 48.3176C81.8197 48.3176 83.6917 47.5907 85.072 46.2969C86.4522 45.0031 87.2276 43.2484 87.2276 41.4187C87.2276 39.5889 86.4522 37.8342 85.072 36.5404C83.6917 35.2466 81.8197 34.5197 79.8678 34.5197C77.9158 34.5197 76.0438 35.2466 74.6636 36.5404C73.2834 37.8342 72.508 39.5889 72.508 41.4187C72.508 43.2484 73.2834 45.0031 74.6636 46.2969C76.0438 47.5907 77.9158 48.3176 79.8678 48.3176V48.3176Z" fill="black"/>
</svg>
