<svg width="121" height="121" viewBox="0 0 121 121" fill="none" xmlns="http://www.w3.org/2000/svg">
<rect x="0.584198" y="0.927673" width="120" height="120" fill="#1F2421"/>
<path d="M20.7433 90.0492C19.9673 90.0492 19.3324 89.8022 18.8386 89.3084C18.3448 88.8146 18.0978 88.1797 18.0978 87.4037V37.6687C18.0978 36.8927 18.3448 36.2578 18.8386 35.764C19.3324 35.2702 19.9673 35.0232 20.7433 35.0232H32.2776C33.0536 35.0232 33.6885 35.2702 34.1823 35.764C34.6762 36.2578 34.9231 36.8927 34.9231 37.6687V41.2666C36.5456 39.1502 38.6973 37.4218 41.378 36.0814C44.1293 34.6705 47.1981 33.9651 50.5843 33.9651C58.3443 33.9651 63.7058 36.9985 66.6688 43.0655C68.3619 40.3847 70.7252 38.1978 73.7587 36.5047C76.7921 34.8116 80.0373 33.9651 83.494 33.9651C89.2788 33.9651 93.9701 35.9403 97.5679 39.8909C101.236 43.771 103.071 49.591 103.071 57.3511V87.4037C103.071 88.1091 102.824 88.744 102.33 89.3084C101.836 89.8022 101.201 90.0492 100.425 90.0492H88.15C87.374 90.0492 86.7038 89.8022 86.1395 89.3084C85.6457 88.8146 85.3988 88.1797 85.3988 87.4037V58.0918C85.3988 54.5645 84.658 52.0248 83.1766 50.4728C81.7656 48.9208 79.8256 48.1448 77.3565 48.1448C75.099 48.1448 73.2296 48.9561 71.7481 50.5786C70.2666 52.1307 69.5259 54.635 69.5259 58.0918V87.4037C69.5259 88.1091 69.279 88.744 68.7852 89.3084C68.2913 89.8022 67.6564 90.0492 66.8804 90.0492H54.6054C53.8294 90.0492 53.1945 89.8022 52.7007 89.3084C52.2068 88.8146 51.9599 88.1797 51.9599 87.4037V58.0918C51.9599 54.635 51.1839 52.1307 49.6319 50.5786C48.1504 48.9561 46.2457 48.1448 43.9177 48.1448C41.6602 48.1448 39.7555 48.9561 38.2035 50.5786C36.722 52.1307 35.9813 54.5998 35.9813 57.986V87.4037C35.9813 88.1091 35.7343 88.744 35.2405 89.3084C34.7467 89.8022 34.1118 90.0492 33.3358 90.0492H20.7433Z" fill="#F8F8F8"/>
</svg>
